<?xml version="1.0" encoding="utf-8"?>
<!-- Generator: Adobe Illustrator 26.0.2, SVG Export Plug-In . SVG Version: 6.00 Build 0)  -->
<svg version="1.1" id="Group_158274" xmlns="http://www.w3.org/2000/svg" xmlns:xlink="http://www.w3.org/1999/xlink" x="0px"
	 y="0px" viewBox="0 0 35.1 34.9" style="enable-background:new 0 0 35.1 34.9;" xml:space="preserve">
<style type="text/css">
	.st0{fill-rule:evenodd;clip-rule:evenodd;fill:#606060;}
</style>
<path id="Path_101" class="st0" d="M4.6,0h26c2.5-0.1,4.5,1.9,4.6,4.4c0,0.1,0,0.1,0,0.2v25.7c0.1,2.5-1.9,4.5-4.4,4.6
	c-0.1,0-0.1,0-0.2,0h-26C2.1,35,0.1,33,0,30.5c0-0.1,0-0.1,0-0.2v-26C0.1,1.9,2.1,0,4.6,0L4.6,0z M25.7,3.9c-0.8,0-1.5,0.6-1.5,1.5
	c0,0,0,0,0,0.1v3.7c0,0.8,0.6,1.5,1.5,1.5c0,0,0,0,0.1,0h3.9c0.8,0,1.5-0.6,1.5-1.5c0,0,0,0,0-0.1V5.5c0-0.8-0.6-1.5-1.5-1.5
	c0,0,0,0-0.1,0L25.7,3.9L25.7,3.9z M31.2,14.8h-3.1c0.3,1,0.4,2,0.4,3.1c-0.1,5.8-4.8,10.5-10.7,10.5c-0.1,0-0.2,0-0.2,0
	c-5.9,0-10.9-4.8-10.9-10.5c0-1,0.2-2.1,0.4-3.1H3.9v14.8c0,0.7,0.6,1.3,1.3,1.3h24.2c0.7,0,1.3-0.5,1.3-1.2v-0.1V14.8H31.2z
	 M17.7,10.5c-3.7,0.1-6.7,3.2-6.5,7s3.2,6.7,7,6.5c3.7-0.1,6.5-3.1,6.5-6.8C24.6,13.5,21.5,10.4,17.7,10.5L17.7,10.5z"/>
</svg>
