<?xml version="1.0" encoding="utf-8"?>
<!-- Generator: Adobe Illustrator 26.0.2, SVG Export Plug-In . SVG Version: 6.00 Build 0)  -->
<svg version="1.1" id="レイヤー_1" xmlns="http://www.w3.org/2000/svg" xmlns:xlink="http://www.w3.org/1999/xlink" x="0px"
	 y="0px" viewBox="0 0 35 35" style="enable-background:new 0 0 35 35;" xml:space="preserve">
<style type="text/css">
	.st0{fill:#606060;}
</style>
<path id="twitter-square" class="st0" d="M29.2,11c-0.9,0.4-1.8,0.6-2.8,0.8c1-0.6,1.8-1.5,2.1-2.7c-0.9,0.6-2,1-3.1,1.2
	c-0.9-1-2.2-1.5-3.5-1.5c-2.6,0-4.8,2.1-4.8,4.8c0,0,0,0,0,0c0,0.4,0,0.7,0.1,1.1c-1.9-0.1-3.8-0.6-5.5-1.5
	c-1.7-0.9-3.2-2.1-4.4-3.5C7,10.3,6.8,11.2,6.8,12c-0.1,1.6,0.7,3.1,2.1,4c-0.8,0-1.6-0.2-2.3-0.6v0c0,1.1,0.4,2.2,1.1,3
	c0.7,0.9,1.7,1.4,2.8,1.7c-0.4,0.1-0.8,0.2-1.2,0.2c-0.3,0-0.6,0-0.9-0.1c0.3,0.9,0.9,1.8,1.7,2.4c0.8,0.6,1.8,1,2.8,1
	c-1.7,1.3-3.8,2.1-5.9,2.1c-0.4,0-0.8,0-1.1-0.1c2.2,1.4,4.7,2.2,7.3,2.1c1.6,0,3.2-0.3,4.8-0.8c1.4-0.5,2.7-1.2,3.8-2.2
	c1.1-0.9,2-2,2.7-3.1c1.5-2.2,2.3-4.9,2.3-7.5c0-0.2,0-0.4,0-0.6C27.7,12.8,28.5,12,29.2,11z M35,6.6v21.9c0,3.6-2.9,6.6-6.6,6.6
	H6.6c-1.7,0-3.4-0.7-4.6-1.9c-1.3-1.2-2-2.9-1.9-4.6V6.6c0-1.7,0.7-3.4,1.9-4.6C3.1,0.7,4.8,0,6.6,0h21.9c1.7,0,3.4,0.7,4.6,1.9
	C34.3,3.1,35,4.8,35,6.6z"/>
</svg>
